<svg width="80.000000" height="80.000000" viewBox="0 0 80 80" fill="none" xmlns="http://www.w3.org/2000/svg" xmlns:xlink="http://www.w3.org/1999/xlink">
	<desc>
			Created with Pixso.
	</desc>
	<defs>
		<clipPath id="clip57_5">
			<rect id="Icon" rx="40.000000" width="80.000000" height="80.000000" fill="white" fill-opacity="0"/>
		</clipPath>
	</defs>
	<rect id="Icon" rx="40.000000" width="80.000000" height="80.000000" fill="#F3F0EA" fill-opacity="1.000000"/>
	<g clip-path="url(#clip57_5)">
		<rect id="Icon" width="64.000000" height="64.000000" transform="translate(86.000000 40.000000) rotate(135.000000)" fill="#FFFFFF" fill-opacity="0"/>
		<path id="Ellipse 18" d="M18.1178 17.3726C11.8751 23.6152 8.75366 31.8076 8.75366 40C8.74518 48.8286 12.3309 56.8286 18.1238 62.6213C24.3605 68.8701 32.5529 71.9915 40.7452 71.9915C49.5737 72 57.5737 68.4143 63.3726 62.6274L40.7452 40L18.1178 17.3726Z" fill="#71A894" fill-opacity="1.000000" fill-rule="evenodd"/>
		<circle id="Ellipse 16" r="22.400002" transform="matrix(-0.707107 -0.707107 -0.707107 0.707107 40.7452 40)" fill="#303031" fill-opacity="1.000000"/>
		<g opacity="0.500000">
			<path id="Intersect" d="M24.9059 24.1609C16.1581 32.9087 16.1581 47.0916 24.9059 55.8394C33.6536 64.5872 47.8365 64.5872 56.5843 55.8394L56.5843 55.8394L40.7451 40.0002L24.9059 24.1609Z" clip-rule="evenodd" fill="#71A894" fill-opacity="1.000000" fill-rule="evenodd"/>
		</g>
	</g>
</svg>
